<?xml version="1.0" encoding="utf-8"?>
<!-- Generator: Adobe Illustrator 26.0.3, SVG Export Plug-In . SVG Version: 6.00 Build 0)  -->
<svg version="1.1" id="Calque_1" xmlns="http://www.w3.org/2000/svg" xmlns:xlink="http://www.w3.org/1999/xlink" x="0px" y="0px"
	 viewBox="0 0 180 40" style="enable-background:new 0 0 180 40;" xml:space="preserve">
<style type="text/css">
	.st0{fill:#FFFFFF;}
	.st1{fill:#05DF00;}
</style>
<g>
	<g>
		<g>
			<path class="st0" d="M79.4,38.8V5.7h7.1v8.2c0.5-0.2,1.1-0.3,1.8-0.5c0.7-0.1,1.5-0.2,2.2-0.2c2,0,3.7,0.3,5.1,0.8
				c1.4,0.6,2.4,1.3,3.2,2.3s1.4,2.2,1.7,3.6s0.5,2.9,0.5,4.7v14.2H94V25.5c0-2.3-0.3-3.9-0.9-4.9s-1.7-1.4-3.3-1.4
				c-0.6,0-1.2,0-1.8,0.2c-0.6,0.1-1.1,0.2-1.5,0.3v19.1L79.4,38.8L79.4,38.8z"/>
		</g>
		<g>
			<path class="st0" d="M159.1,25.5c0-2.3-0.3-3.9-0.9-4.9c-0.6-0.9-1.6-1.4-3-1.4c-0.4,0-0.9,0-1.4,0.1c-0.5,0-0.9,0.1-1.4,0.2
				v19.3h-7.1V14.6c0.6-0.2,1.3-0.3,2.1-0.5s1.7-0.3,2.6-0.5s1.8-0.3,2.8-0.3c0.9-0.1,1.9-0.1,2.8-0.1c1.8,0,3.3,0.2,4.4,0.7
				c1.2,0.5,2.1,1,2.8,1.6c1-0.7,2.2-1.3,3.5-1.7c1.3-0.4,2.5-0.6,3.6-0.6c2,0,3.6,0.3,4.9,0.8c1.3,0.6,2.3,1.3,3.1,2.3
				c0.8,1,1.3,2.2,1.6,3.6c0.3,1.4,0.4,2.9,0.4,4.7v14.2h-7.1V25.5c0-2.3-0.3-3.9-0.9-4.9s-1.6-1.4-3-1.4c-0.4,0-0.9,0.1-1.6,0.3
				c-0.7,0.2-1.2,0.4-1.7,0.7c0.2,0.7,0.4,1.5,0.4,2.3c0.1,0.8,0.1,1.7,0.1,2.6v13.8h-7.1V25.5L159.1,25.5z"/>
		</g>
		<g>
			<path class="st0" d="M142.7,13.7c-0.3,0-0.6-0.1-1-0.1c-0.5,0-1-0.1-1.4-0.1c-2.1,0-4.1,0.2-5.8,0.6c-1.8,0.4-3.2,0.8-4.5,1.3
				v23.4h7.1V20c0.3-0.1,0.8-0.2,1.4-0.3c0.6-0.1,1.2-0.1,1.6-0.1c0.9,0,1.8,0.1,2.6,0.2L142.7,13.7L142.7,13.7z"/>
		</g>
		<path class="st0" d="M124.7,32.3c-0.8,0.3-1.7,0.6-2.9,0.8c-1.3,0.2-2.5,0.3-3.8,0.3c-2,0-3.7-0.4-4.9-1.3c-1.2-0.9-1.9-2-2.1-3.5
			h16.1c0-0.4,0.1-0.8,0.1-1.3c0-0.5,0-0.9,0-1.4c0-4.2-1-7.4-3.1-9.6c-2.1-2.2-4.9-3.3-8.4-3.3c-1.5,0-3,0.3-4.4,0.9
			c-1.5,0.6-2.7,1.4-3.8,2.5c-1.1,1.1-2,2.5-2.7,4.2c-0.7,1.7-1,3.6-1,5.9c0,1.8,0.3,3.6,0.8,5.2c0.5,1.6,1.3,3,2.4,4.1
			c1.1,1.2,2.5,2.1,4.1,2.7c1.7,0.7,3.6,1,5.9,1c0.9,0,1.8,0,2.7-0.1c0.9-0.1,1.7-0.2,2.5-0.3c0.8-0.1,1.5-0.3,2.1-0.5
			c0.1,0,0.3-0.1,0.4-0.1L124.7,32.3L124.7,32.3z M111.5,22.1c0.2-0.6,0.5-1.1,0.9-1.5c0.4-0.4,0.9-0.8,1.4-1.1s1.3-0.4,2.1-0.4
			c0.8,0,1.5,0.1,2.1,0.4c0.6,0.3,1,0.6,1.4,1.1c0.4,0.4,0.6,0.9,0.8,1.5c0.2,0.6,0.3,1.2,0.3,1.8H111
			C111.2,23.3,111.3,22.7,111.5,22.1z"/>
		<path class="st0" d="M76,20.5v-5.8h-8.5v-9h-7.1v22.5c0,1.6,0.1,3.1,0.5,4.4c0.3,1.3,0.8,2.5,1.6,3.4c0.8,0.9,1.8,1.7,3,2.2
			c1.3,0.5,2.9,0.8,4.8,0.8c1.5,0,2.8-0.1,3.9-0.4c0.3-0.1,0.6-0.1,0.9-0.2v-5.9c-0.4,0.1-0.8,0.2-1.2,0.3C73,32.9,72.2,33,71.4,33
			c-1.6,0-2.6-0.4-3.2-1.3c-0.5-0.9-0.8-2.1-0.8-3.6v-7.6L76,20.5L76,20.5z"/>
	</g>
	<path class="st1" d="M43.5,13.6c-7.6,0-13.8,5.8-13.8,13c0,0.7,0.1,1.4,0.2,2.1c-5.2,4.1-13.2,4-18.2-0.3c-5.2-4.5-5.1-12,0.1-16.6
		c5-4.4,12.9-4.7,18.1-0.7c1.5-1.7,3.6-3.4,6.3-5c-0.8-0.7-1.6-1.4-2.5-2C24.3-2.3,11-0.3,4.1,8.5s-4.9,21,4.5,27.4
		c7.6,5.2,17.8,4.8,25.1-0.2c2.5,2.4,6,3.9,9.8,3.9c7.6,0,13.8-5.8,13.8-13C57.2,19.4,51.1,13.6,43.5,13.6z M43.5,33.1
		c-3.7,0-6.7-2.9-6.7-6.5s3-6.5,6.7-6.5s6.7,2.9,6.7,6.5C50.2,30.2,47.2,33.1,43.5,33.1z"/>
</g>
</svg>
