<svg xmlns="http://www.w3.org/2000/svg" xmlns:xlink="http://www.w3.org/1999/xlink" xml:space="preserve" style="shape-rendering:geometricPrecision;text-rendering:geometricPrecision;image-rendering:optimizeQuality;" viewBox="0 0 6.827 8.53375" x="0px" y="0px" fill-rule="evenodd" clip-rule="evenodd"><defs><style type="text/css">
   
    .fil1 {fill:none}
    .fil0 {fill:black;fill-rule:nonzero}
   
  </style></defs><g><g><g><path class="fil0" d="M0.955169 5.19692l4.91666 0 0 -3.11111 -4.91666 0 0 3.11111zm4.95833 0.0833386l-5 0c-0.0230118,0 -0.0416693,-0.0186575 -0.0416693,-0.0416693l0 -3.19445c0,-0.0230118 0.0186575,-0.0416693 0.0416693,-0.0416693l5 0c0.0230118,0 0.0416693,0.0186575 0.0416693,0.0416693l0 3.19445c0,0.0230118 -0.0186575,0.0416693 -0.0416693,0.0416693z"/><path class="fil0" d="M0.955169 1.79414l4.91666 0 0 -0.385409 -4.91666 0 0 0.385409zm4.95833 0.0833386l-5 0c-0.0230118,0 -0.0416693,-0.0186575 -0.0416693,-0.0416693l0 -0.468748c0,-0.0230118 0.0186575,-0.0416693 0.0416693,-0.0416693l5 0c0.0230118,0 0.0416693,0.0186575 0.0416693,0.0416693l0 0.468748c0,0.0230118 -0.0186575,0.0416693 -0.0416693,0.0416693z"/><g><path class="fil0" d="M1.42285 1.79414l0.0772323 0 0 -0.385409 -0.0772323 0 0 0.385409zm0.118902 0.0833386l-0.160571 0c-0.0230118,0 -0.0416693,-0.0186575 -0.0416693,-0.0416693l0 -0.468748c0,-0.0230118 0.0186575,-0.0416693 0.0416693,-0.0416693l0.160571 0c0.0230118,0 0.0416693,0.0186575 0.0416693,0.0416693l0 0.468748c0,0.0230118 -0.0186575,0.0416693 -0.0416693,0.0416693z"/><path class="fil0" d="M2.00878 1.79414l0.0772362 0 0 -0.385409 -0.0772362 0 0 0.385409zm0.118906 0.0833386l-0.160575 0c-0.0230118,0 -0.0416693,-0.0186575 -0.0416693,-0.0416693l0 -0.468748c0,-0.0230118 0.0186575,-0.0416693 0.0416693,-0.0416693l0.160575 0c0.0230118,0 0.0416693,0.0186575 0.0416693,0.0416693l0 0.468748c0,0.0230118 -0.0186575,0.0416693 -0.0416693,0.0416693z"/><path class="fil0" d="M4.74099 1.79414l0.0772362 0 0 -0.385409 -0.0772362 0 0 0.385409zm0.118906 0.0833386l-0.160575 0c-0.0230118,0 -0.0416693,-0.0186575 -0.0416693,-0.0416693l0 -0.468748c0,-0.0230118 0.0186575,-0.0416693 0.0416693,-0.0416693l0.160575 0c0.0230118,0 0.0416693,0.0186575 0.0416693,0.0416693l0 0.468748c0,0.0230118 -0.0186575,0.0416693 -0.0416693,0.0416693z"/><path class="fil0" d="M5.32692 1.79414l0.0772323 0 0 -0.385409 -0.0772323 0 0 0.385409zm0.118902 0.0833386l-0.160571 0c-0.0230118,0 -0.0416693,-0.0186575 -0.0416693,-0.0416693l0 -0.468748c0,-0.0230118 0.0186575,-0.0416693 0.0416693,-0.0416693l0.160571 0c0.0230118,0 0.0416693,0.0186575 0.0416693,0.0416693l0 0.468748c0,0.0230118 -0.0186575,0.0416693 -0.0416693,0.0416693z"/></g><path class="fil0" d="M0.955169 2.37139l4.91666 0 0 -0.285583 -4.91666 0 0 0.285583zm4.95833 0.0833386l-5 0c-0.0230118,0 -0.0416693,-0.0186575 -0.0416693,-0.0416693l0 -0.368921c0,-0.0230118 0.0186575,-0.0416693 0.0416693,-0.0416693l5 0c0.0230118,0 0.0416693,0.0186575 0.0416693,0.0416693l0 0.368921c0,0.0230118 -0.0186575,0.0416693 -0.0416693,0.0416693z"/><path class="fil0" d="M2.83451 2.76202l1.15799 0 0 -0.307291 -1.15799 0 0 0.307291zm1.19966 0.0833386l-1.24133 0c-0.0230118,0 -0.0416693,-0.0186575 -0.0416693,-0.0416693l0 -0.39063c0,-0.0230118 0.0186575,-0.0416693 0.0416693,-0.0416693l1.24133 0c0.0230118,0 0.0416693,0.0186575 0.0416693,0.0416693l0 0.39063c0,0.0230118 -0.0186575,0.0416693 -0.0416693,0.0416693z"/><g><path class="fil0" d="M1.28937 5.41828l0.906244 0 0 -0.13802 -0.906244 0 0 0.13802zm0.947913 0.0833386l-0.989583 0c-0.0230118,0 -0.0416693,-0.0186575 -0.0416693,-0.0416693l0 -0.221358c0,-0.0230118 0.0186575,-0.0416693 0.0416693,-0.0416693l0.989583 0c0.0230118,0 0.0416693,0.0186575 0.0416693,0.0416693l0 0.221358c0,0.0230118 -0.0186575,0.0416693 -0.0416693,0.0416693z"/><path class="fil0" d="M4.63139 5.41828l0.906244 0 0 -0.13802 -0.906244 0 0 0.13802zm0.947913 0.0833386l-0.989583 0c-0.0230118,0 -0.0416693,-0.0186575 -0.0416693,-0.0416693l0 -0.221358c0,-0.0230118 0.0186575,-0.0416693 0.0416693,-0.0416693l0.989583 0c0.0230118,0 0.0416693,0.0186575 0.0416693,0.0416693l0 0.221358c0,0.0230118 -0.0186575,0.0416693 -0.0416693,0.0416693z"/></g><path class="fil0" d="M0.955169 5.19691l0.161862 0 0 -2.74219 -0.161862 0 0 2.74219zm0.203531 0.0833386l-0.245201 0c-0.0230118,0 -0.0416693,-0.0186575 -0.0416693,-0.0416693l0 -2.82552c0,-0.0230118 0.0186575,-0.0416693 0.0416693,-0.0416693l0.245201 0c0.0230118,0 0.0416693,0.0186575 0.0416693,0.0416693l0 2.82552c0,0.0230118 -0.0186575,0.0416693 -0.0416693,0.0416693z"/><path class="fil0" d="M4.45338 4.98426l1.18402 0 0 -0.42013 -1.18402 0 0 0.42013zm1.22569 0.0833386l-1.26736 0c-0.0230118,0 -0.0416693,-0.0186575 -0.0416693,-0.0416693l0 -0.503469c0,-0.0230118 0.0186575,-0.0416693 0.0416693,-0.0416693l1.26736 0c0.0230118,0 0.0416693,0.0186575 0.0416693,0.0416693l0 0.503469c0,0.0230118 -0.0186575,0.0416693 -0.0416693,0.0416693z"/><path class="fil0" d="M5.40236 4.63269c0.0390709,0 0.0744488,0.0158465 0.100055,0.0414528l3.93701e-006 -3.93701e-006c0.000901575,0.000901575 0.00175591,0.00184252 0.00255906,0.00280315 0.0241063,0.0254449 0.0388898,0.059689 0.0388898,0.0972559 0,0.0390709 -0.0158425,0.0744528 -0.0414488,0.100059l3.93701e-006 3.93701e-006c-0.000889764,0.000889764 -0.00181102,0.00172835 -0.00275591,0.00251969 -0.025378,0.0241181 -0.0596417,0.0389252 -0.0973071,0.0389252 -0.0390709,0 -0.0744528,-0.0158425 -0.100059,-0.0414488 -0.0256063,-0.0256063 -0.0414488,-0.0609882 -0.0414488,-0.100059 0,-0.0389606 0.0158425,-0.0742835 0.0414488,-0.0998976l0.0294606 0.0292992 -0.0294646 -0.0294606 0.000311024 -0.00030315c0.0255787,-0.0254291 0.0608346,-0.0411457 0.099752,-0.0411457zm0.0411339 0.100374c-0.0105197,-0.0105197 -0.0250669,-0.0170354 -0.0411339,-0.0170354 -0.0160079,0 -0.0305079,0.00646457 -0.0410197,0.0169134l-0.000114173 0.00011811 -3.93701e-006 0 -7.87402e-005 -7.87402e-005c-0.0104724,0.0105157 -0.0169528,0.0250787 -0.0169528,0.0412165 0,0.0160669 0.00651181,0.0306181 0.0170315,0.0411378 0.0105197,0.0105197 0.0250709,0.0170315 0.0411378,0.0170315 0.0152953,0 0.0291772,-0.00582283 0.0395394,-0.0153465 0.000515748,-0.000574803 0.00104331,-0.0011378 0.00159449,-0.00168898l3.93701e-006 3.93701e-006c0.0105197,-0.0105197 0.0170315,-0.0250709 0.0170315,-0.0411378 0,-0.0153228 -0.00579134,-0.029185 -0.0152677,-0.0394646 -0.000602362,-0.000535433 -0.00119291,-0.00108661 -0.00177165,-0.00166535l3.93701e-006 -3.93701e-006z"/><path class="fil0" d="M5.07684 4.63269c0.0390709,0 0.0744488,0.0158465 0.100055,0.0414528l3.93701e-006 -3.93701e-006c0.000901575,0.000901575 0.00175591,0.00184252 0.00255906,0.00280315 0.0241063,0.0254449 0.0388898,0.059689 0.0388898,0.0972559 0,0.0390709 -0.0158425,0.0744528 -0.0414488,0.100059l3.93701e-006 3.93701e-006c-0.000889764,0.000889764 -0.00181102,0.00172835 -0.00275591,0.00251969 -0.025378,0.0241181 -0.0596417,0.0389252 -0.0973071,0.0389252 -0.0390709,0 -0.0744528,-0.0158425 -0.100059,-0.0414488l-3.93701e-006 3.93701e-006c-0.000901575,-0.000901575 -0.00175591,-0.00184252 -0.00255906,-0.00280315 -0.0241063,-0.0254449 -0.0388898,-0.059689 -0.0388898,-0.0972598 0,-0.0390709 0.0158465,-0.0744488 0.0414528,-0.100055l-3.93701e-006 -3.93701e-006c0.000901575,-0.000901575 0.00184252,-0.00175591 0.00280315,-0.00255906 0.0254449,-0.0241063 0.059689,-0.0388898 0.0972598,-0.0388898zm0.0411339 0.100374c-0.0105197,-0.0105197 -0.0250669,-0.0170354 -0.0411339,-0.0170354 -0.0153268,0 -0.029189,0.00579134 -0.0394685,0.0152677 -0.000535433,0.000602362 -0.00108661,0.00119291 -0.00166535,0.00177165l-3.93701e-006 -3.93701e-006c-0.0105197,0.0105197 -0.0170354,0.0250669 -0.0170354,0.0411339 0,0.0153268 0.00579134,0.029189 0.0152677,0.0394685 0.000602362,0.000535433 0.00119291,0.00108661 0.00177165,0.00166535l-3.93701e-006 3.93701e-006c0.0105197,0.0105197 0.0250709,0.0170315 0.0411378,0.0170315 0.0152953,0 0.0291772,-0.00582283 0.0395394,-0.0153465 0.000515748,-0.000574803 0.00104331,-0.0011378 0.00159449,-0.00168898l3.93701e-006 3.93701e-006c0.0105197,-0.0105197 0.0170315,-0.0250709 0.0170315,-0.0411378 0,-0.0153228 -0.00579134,-0.029185 -0.0152677,-0.0394646 -0.000602362,-0.000535433 -0.00119291,-0.00108661 -0.00177165,-0.00166535l3.93701e-006 -3.93701e-006z"/><g><path class="fil0" d="M3.45517 3.6522c0,-0.0230118 -0.0186575,-0.0416693 -0.0416693,-0.0416693 -0.0230118,0 -0.0416693,0.0186575 -0.0416693,0.0416693l0 0.781287c0,0.0230118 0.0186575,0.0416693 0.0416693,0.0416693 0.0230118,0 0.0416693,-0.0186575 0.0416693,-0.0416693l0 -0.781287z"/><path class="fil0" d="M3.77264 3.88349c0.0198661,-0.0115039 0.0266417,-0.0369409 0.0151378,-0.0568071 -0.0115039,-0.0198661 -0.0369409,-0.0266417 -0.0568071,-0.0151378l-0.67661 0.390646c-0.0198661,0.0115039 -0.0266417,0.0369409 -0.0151378,0.0568071 0.0115039,0.0198661 0.0369409,0.0266417 0.0568071,0.0151378l0.67661 -0.390646z"/><path class="fil0" d="M3.09603 3.81155c-0.0198661,-0.0115039 -0.0453031,-0.00472835 -0.0568071,0.0151378 -0.0115039,0.0198661 -0.00472835,0.0453031 0.0151378,0.0568071l0.67661 0.390642c0.0198661,0.0115039 0.0453031,0.00472835 0.0568071,-0.0151378 0.0115039,-0.0198661 0.00472835,-0.0453031 -0.0151378,-0.0568071l-0.67661 -0.390642z"/></g></g></g></g><rect class="fil1" width="6.827" height="6.827"/><text x="0" y="21.826999999999998" fill="#000000" font-size="5px" font-weight="bold" font-family="'Helvetica Neue', Helvetica, Arial-Unicode, Arial, Sans-serif">Created by Grafix Point</text><text x="0" y="26.826999999999998" fill="#000000" font-size="5px" font-weight="bold" font-family="'Helvetica Neue', Helvetica, Arial-Unicode, Arial, Sans-serif">from the Noun Project</text></svg>