<svg xmlns="http://www.w3.org/2000/svg" xmlns:xlink="http://www.w3.org/1999/xlink" version="1.1" width="512" height="512" x="0" y="0" viewBox="0 0 682.667 682.667" style="enable-background:new 0 0 512 512" xml:space="preserve" class=""><g><defs fill="#01814a"><clipPath id="a" clipPathUnits="userSpaceOnUse" fill="#01814a"><path d="M0 512h512V0H0Z" fill="#01814a" opacity="1" data-original="#01814a"/></clipPath></defs><g clip-path="url(#a)" transform="matrix(1.33333 0 0 -1.33333 0 682.667)"><path d="M0 0h118.359c9.81 0 17.763-7.952 17.763-17.762V-479.46c0-9.811-7.953-17.763-17.763-17.763H-61.026c-9.81 0-17.763 7.952-17.763 17.763v461.698C-78.789-7.952-70.836 0-61.026 0h26.193" style="stroke-width:15;stroke-linecap:round;stroke-linejoin:round;stroke-miterlimit:10;stroke-dasharray:none;stroke-opacity:1" transform="translate(227.333 504.61)" fill="none" stroke="#01814a" stroke-width="15" stroke-linecap="round" stroke-linejoin="round" stroke-miterlimit="10" stroke-dasharray="none" stroke-opacity="" data-original="#01814a" opacity="1"/><path d="M0 0a9.453 9.453 0 0 0 9.454 9.454A9.454 9.454 0 1 0 0 0" style="fill-opacity:1;fill-rule:nonzero;stroke:none" transform="translate(218.438 465.021)" fill="#01814a" data-original="#01814a" opacity="1"/><path d="M0 0a9.454 9.454 0 0 0 9.454 9.454A9.454 9.454 0 1 0 0 0" style="fill-opacity:1;fill-rule:nonzero;stroke:none" transform="translate(275.255 465.021)" fill="#01814a" data-original="#01814a" opacity="1"/><path d="M0 0v-50.889" style="stroke-width:15;stroke-linecap:round;stroke-linejoin:round;stroke-miterlimit:10;stroke-dasharray:none;stroke-opacity:1" transform="translate(318.68 391.888)" fill="none" stroke="#01814a" stroke-width="15" stroke-linecap="round" stroke-linejoin="round" stroke-miterlimit="10" stroke-dasharray="none" stroke-opacity="" data-original="#01814a" opacity="1"/><path d="M0 0v-40.567h-125.359v126.58" style="stroke-width:15;stroke-linecap:round;stroke-linejoin:round;stroke-miterlimit:10;stroke-dasharray:none;stroke-opacity:1" transform="translate(318.68 305.875)" fill="none" stroke="#01814a" stroke-width="15" stroke-linecap="round" stroke-linejoin="round" stroke-miterlimit="10" stroke-dasharray="none" stroke-opacity="" data-original="#01814a" opacity="1"/><path d="M363.456 231.808H148.545v33.5h214.911z" style="stroke-width:15;stroke-linecap:round;stroke-linejoin:round;stroke-miterlimit:10;stroke-dasharray:none;stroke-opacity:1" fill="none" stroke="#01814a" stroke-width="15" stroke-linecap="round" stroke-linejoin="round" stroke-miterlimit="10" stroke-dasharray="none" stroke-opacity="" data-original="#01814a" opacity="1"/><path d="m0 0 37.28-35.094a25.957 25.957 0 0 1 17.79-7.056h104.771a25.957 25.957 0 0 1 17.79 7.056L214.911 0Z" style="stroke-width:15;stroke-linecap:round;stroke-linejoin:round;stroke-miterlimit:10;stroke-dasharray:none;stroke-opacity:1" transform="translate(148.544 431.903)" fill="none" stroke="#01814a" stroke-width="15" stroke-linecap="round" stroke-linejoin="round" stroke-miterlimit="10" stroke-dasharray="none" stroke-opacity="" data-original="#01814a" opacity="1"/><path d="M0 0h125.359" style="stroke-width:15;stroke-linecap:round;stroke-linejoin:round;stroke-miterlimit:10;stroke-dasharray:none;stroke-opacity:1" transform="translate(193.32 204.424)" fill="none" stroke="#01814a" stroke-width="15" stroke-linecap="round" stroke-linejoin="round" stroke-miterlimit="10" stroke-dasharray="none" stroke-opacity="" data-original="#01814a" opacity="1"/><path d="M0 0v-19.57" style="stroke-width:15;stroke-linecap:round;stroke-linejoin:round;stroke-miterlimit:10;stroke-dasharray:none;stroke-opacity:1" transform="translate(227.891 389.752)" fill="none" stroke="#01814a" stroke-width="15" stroke-linecap="round" stroke-linejoin="round" stroke-miterlimit="10" stroke-dasharray="none" stroke-opacity="" data-original="#01814a" opacity="1"/><path d="M0 0v-19.57" style="stroke-width:15;stroke-linecap:round;stroke-linejoin:round;stroke-miterlimit:10;stroke-dasharray:none;stroke-opacity:1" transform="translate(284.109 389.752)" fill="none" stroke="#01814a" stroke-width="15" stroke-linecap="round" stroke-linejoin="round" stroke-miterlimit="10" stroke-dasharray="none" stroke-opacity="" data-original="#01814a" opacity="1"/></g></g></svg>