<?xml version="1.0" encoding="UTF-8"?>
<!-- Generator: visioncortex VTracer 0.6.3 -->
<svg version="1.1" xmlns="http://www.w3.org/2000/svg" width="1280" height="358">
<path d="M0 0 C1.55 -0.02 3.11 -0.04 4.66 -0.08 C6.9 -0.14 9.14 -0.16 11.39 -0.17 C12.07 -0.2 12.76 -0.22 13.47 -0.24 C17.35 -0.23 19.2 0.38 22.45 2.56 C24.98 5.16 26.57 7.3 28.19 10.52 C28.69 11.49 29.19 12.47 29.7 13.48 C30.2 14.49 30.7 15.5 31.22 16.54 C31.72 17.53 32.22 18.52 32.74 19.54 C34.23 22.47 35.69 25.41 37.16 28.35 C37.59 29.21 38.02 30.07 38.47 30.96 C41.39 36.76 44.2 42.6 46.97 48.48 C50.48 55.89 54.06 63.26 57.82 70.55 C60.16 75.14 60.16 75.14 60.16 77.35 C60.82 77.35 61.48 77.35 62.16 77.35 C62.41 76.52 62.67 75.69 62.93 74.84 C64.31 70.91 65.99 67.23 67.78 63.48 C68.14 62.72 68.49 61.97 68.86 61.2 C71.73 55.19 74.68 49.22 77.68 43.28 C79.42 39.84 81.12 36.38 82.81 32.91 C84.13 30.21 85.45 27.52 86.78 24.83 C87.44 23.48 88.1 22.13 88.75 20.79 C97.2 3.33 97.2 3.33 103.16 0.35 C105.64 0.26 108.09 0.23 110.57 0.25 C111.3 0.25 112.03 0.26 112.78 0.26 C115.11 0.26 117.45 0.27 119.78 0.29 C121.36 0.29 122.94 0.3 124.52 0.3 C128.4 0.31 132.28 0.33 136.16 0.35 C137.35 2.74 137.28 4.21 137.29 6.88 C137.3 8.32 137.3 8.32 137.3 9.78 C137.3 10.83 137.3 11.88 137.3 12.96 C137.3 14.07 137.31 15.17 137.31 16.31 C137.32 19.97 137.32 23.64 137.32 27.31 C137.33 29.85 137.33 32.39 137.33 34.93 C137.34 40.26 137.34 45.6 137.34 50.93 C137.34 57.09 137.35 63.26 137.37 69.42 C137.38 75.35 137.38 81.28 137.38 87.2 C137.38 89.73 137.39 92.25 137.4 94.77 C137.41 98.3 137.4 101.82 137.4 105.35 C137.4 106.39 137.41 107.44 137.41 108.52 C137.41 109.48 137.41 110.44 137.4 111.43 C137.4 112.27 137.4 113.1 137.4 113.96 C137.11 116.83 136.51 118.79 135.16 121.35 C130.16 125.35 130.16 125.35 103.16 125.35 C102.66 96.64 102.66 96.64 102.16 67.35 C96.02 80.22 96.02 80.22 90.47 93.29 C87.98 99.47 85.31 105.48 82.16 111.35 C81.8 112.04 81.44 112.73 81.07 113.44 C79.34 116.63 78.23 118.3 75.16 120.35 C70.55 120.85 65.91 120.77 61.28 120.79 C60 120.82 58.72 120.85 57.4 120.89 C48 120.94 48 120.94 43.92 118.08 C40.9 113.4 40.9 113.4 39.84 111.16 C39.43 110.29 39.01 109.42 38.59 108.52 C35.4 101.48 32.28 94.42 29.16 87.35 C26.19 80.75 23.22 74.15 20.16 67.35 C19.83 86.49 19.5 105.63 19.16 125.35 C-7.84 125.35 -7.84 125.35 -13.84 120.35 C-14.81 117.45 -14.97 115.61 -14.97 112.59 C-14.97 111.61 -14.98 110.63 -14.98 109.63 C-14.98 108.55 -14.98 107.48 -14.97 106.38 C-14.98 105.25 -14.98 104.12 -14.98 102.95 C-14.98 99.21 -14.98 95.46 -14.98 91.72 C-14.98 89.12 -14.98 86.53 -14.98 83.94 C-14.98 78.5 -14.98 73.06 -14.98 67.62 C-14.97 61.32 -14.97 55.03 -14.98 48.73 C-14.98 42.68 -14.98 36.63 -14.98 30.58 C-14.98 28 -14.98 25.42 -14.98 22.85 C-14.98 19.25 -14.98 15.66 -14.97 12.06 C-14.98 10.99 -14.98 9.91 -14.98 8.8 C-14.98 7.83 -14.97 6.86 -14.97 5.85 C-14.97 5 -14.97 4.15 -14.97 3.28 C-14.63 -1.88 -4.09 0.03 0 0 Z " fill="#FAFAFA" transform="translate(647.844970703125,59.64990234375)"/>
<path d="M0 0 C1.19 -0.01 1.19 -0.01 2.4 -0.01 C5.02 -0.02 7.63 -0.01 10.25 -0.01 C12.07 -0.01 13.9 -0.01 15.73 -0.01 C19.56 -0.02 23.39 -0.01 27.22 -0 C32.11 0.01 36.99 0 41.88 -0.01 C45.65 -0.02 49.43 -0.01 53.21 -0.01 C55.01 -0.01 56.81 -0.01 58.61 -0.01 C71.33 -0.04 82.97 0.65 94.99 5.26 C95.73 5.53 96.47 5.81 97.23 6.09 C108.48 10.65 117.81 18.93 122.86 30.01 C127.77 42.81 126.54 54.48 121.14 66.75 C120.45 68.27 119.73 69.77 118.99 71.26 C118.33 71.26 117.67 71.26 116.99 71.26 C116.74 71.84 116.49 72.42 116.23 73.02 C111.42 81.71 101.74 85.69 92.99 89.26 C93.98 90.43 93.98 90.43 94.99 91.63 C96.99 94.26 96.99 94.26 96.99 96.26 C97.65 96.26 98.31 96.26 98.99 96.26 C100.43 97.69 100.43 97.69 102.11 99.7 C105.48 103.68 108.96 107.54 112.48 111.38 C113.99 113.26 113.99 113.26 113.99 115.26 C114.98 115.59 115.97 115.92 116.99 116.26 C118.59 118.11 118.59 118.11 120.18 120.32 C120.71 121.05 121.23 121.79 121.78 122.54 C122.18 123.11 122.58 123.68 122.99 124.26 C121.46 125.79 120.06 125.41 117.93 125.44 C116.64 125.46 116.64 125.46 115.32 125.47 C114.38 125.48 113.44 125.49 112.48 125.5 C111.52 125.51 110.55 125.51 109.56 125.52 C107.52 125.54 105.48 125.55 103.44 125.55 C100.33 125.57 97.22 125.61 94.11 125.66 C92.13 125.67 90.14 125.68 88.16 125.68 C87.24 125.7 86.31 125.72 85.35 125.74 C79.63 125.72 76.33 125.11 71.99 121.26 C71.99 120.6 71.99 119.94 71.99 119.26 C71.33 119.26 70.67 119.26 69.99 119.26 C68.46 117.6 68.46 117.6 66.61 115.2 C65.87 114.3 65.13 113.4 64.37 112.48 C62.57 110.19 61.25 107.89 59.95 105.29 C57.33 100.58 54.87 96.8 49.99 94.26 C39.2 92.07 27.92 92.7 16.99 93.26 C17 93.89 17.02 94.53 17.04 95.18 C17.1 98.08 17.14 100.98 17.18 103.88 C17.2 104.88 17.23 105.88 17.25 106.91 C17.31 112.42 17.29 116.6 13.99 121.26 C10.24 124.85 7.98 125.75 2.81 125.65 C1.66 125.64 0.5 125.62 -0.69 125.61 C-1.89 125.58 -3.09 125.54 -4.32 125.51 C-6.15 125.48 -6.15 125.48 -8.01 125.45 C-11.01 125.41 -14.01 125.34 -17.01 125.26 C-17.11 109.96 -17.18 94.66 -17.22 79.36 C-17.24 72.26 -17.27 65.15 -17.31 58.05 C-17.36 51.2 -17.38 44.34 -17.39 37.49 C-17.4 34.87 -17.41 32.26 -17.44 29.64 C-17.46 25.98 -17.47 22.32 -17.47 18.66 C-17.48 17.57 -17.5 16.49 -17.51 15.37 C-17.49 10.96 -17.47 8.07 -15.3 4.17 C-10.5 0.16 -6.07 -0.03 0 0 Z M16.99 34.26 C16.99 42.51 16.99 50.76 16.99 59.26 C24.42 59.34 31.86 59.42 39.29 59.47 C42.75 59.49 46.22 59.51 49.68 59.56 C53.66 59.61 57.64 59.63 61.62 59.65 C62.85 59.67 64.08 59.69 65.35 59.71 C72.11 59.71 76.57 59.46 81.99 55.26 C84.96 50.81 84.74 46.48 83.99 41.26 C81.45 37.81 78.91 35.86 74.99 34.26 C72.24 33.97 72.24 33.97 69.21 34.03 C68.05 34.03 66.89 34.03 65.69 34.03 C64.44 34.04 63.2 34.05 61.91 34.06 C60.63 34.07 59.35 34.07 58.03 34.07 C54.63 34.08 51.23 34.1 47.83 34.12 C44.35 34.14 40.88 34.15 37.41 34.16 C30.6 34.18 23.8 34.22 16.99 34.26 Z " fill="#FAFAFA" transform="translate(985.01220703125,59.7412109375)"/>
<path d="M0 0 C1.53 -0.01 1.53 -0.01 3.1 -0.02 C4.22 -0.02 5.34 -0.02 6.49 -0.02 C7.67 -0.03 8.85 -0.03 10.07 -0.04 C13.31 -0.05 16.55 -0.06 19.79 -0.06 C21.82 -0.06 23.84 -0.07 25.87 -0.07 C32.2 -0.08 38.54 -0.09 44.88 -0.1 C52.19 -0.1 59.51 -0.12 66.82 -0.15 C72.47 -0.17 78.13 -0.18 83.78 -0.18 C87.16 -0.18 90.54 -0.19 93.91 -0.21 C97.68 -0.22 101.45 -0.22 105.22 -0.22 C106.33 -0.23 107.44 -0.23 108.59 -0.24 C114.15 -0.21 118.29 -0.08 123.05 3.14 C127.31 7.63 127.5 11.54 127.45 17.44 C127.42 18.43 127.39 19.43 127.36 20.45 C127.35 21.47 127.34 22.48 127.33 23.53 C127.22 30.97 127.22 30.97 126.05 32.14 C124.68 32.25 123.31 32.29 121.94 32.3 C121.06 32.31 120.17 32.32 119.26 32.33 C118.28 32.33 117.3 32.34 116.3 32.35 C114.76 32.36 114.76 32.36 113.19 32.38 C109.79 32.41 106.39 32.43 102.98 32.46 C100.63 32.48 98.28 32.5 95.92 32.52 C89.72 32.58 83.51 32.62 77.31 32.67 C70.98 32.72 64.65 32.78 58.32 32.83 C45.9 32.94 33.47 33.04 21.05 33.14 C21.05 37.76 21.05 42.38 21.05 47.14 C23.16 47.16 25.27 47.18 27.44 47.2 C34.4 47.27 41.36 47.34 48.32 47.43 C52.55 47.48 56.77 47.52 60.99 47.56 C65.06 47.6 69.13 47.65 73.21 47.7 C74.76 47.72 76.32 47.73 77.87 47.74 C80.05 47.76 82.22 47.79 84.4 47.82 C85.63 47.83 86.87 47.85 88.15 47.86 C91.05 48.14 91.05 48.14 93.05 50.14 C93.31 52.63 93.31 52.63 93.31 55.73 C93.32 57.4 93.32 57.4 93.32 59.11 C93.31 60.27 93.31 61.44 93.3 62.64 C93.31 64.39 93.31 64.39 93.32 66.18 C93.32 67.29 93.32 68.4 93.31 69.55 C93.31 70.57 93.31 71.6 93.31 72.65 C93.05 75.14 93.05 75.14 91.05 77.14 C88.11 77.38 88.11 77.38 84.3 77.37 C83.26 77.37 83.26 77.37 82.2 77.37 C79.91 77.37 77.62 77.35 75.32 77.34 C73.73 77.33 72.14 77.33 70.55 77.33 C66.37 77.32 62.18 77.3 58 77.28 C53.73 77.26 49.46 77.25 45.19 77.24 C36.81 77.22 28.43 77.18 20.05 77.14 C20.54 85.06 20.54 85.06 21.05 93.14 C22.36 93.15 23.67 93.16 25.03 93.17 C37.37 93.27 49.72 93.37 62.07 93.48 C68.42 93.54 74.76 93.59 81.11 93.64 C87.23 93.69 93.35 93.74 99.47 93.79 C101.81 93.81 104.16 93.83 106.5 93.85 C109.76 93.87 113.03 93.9 116.3 93.94 C117.27 93.94 118.25 93.95 119.26 93.95 C120.15 93.96 121.03 93.97 121.94 93.98 C122.71 93.99 123.49 94 124.29 94 C126.05 94.14 126.05 94.14 127.05 95.14 C127.36 98.53 127.33 101.93 127.36 105.33 C127.39 106.27 127.42 107.22 127.45 108.2 C127.5 114.01 127.14 117.66 123.05 122.14 C119.5 124.64 117.1 125.52 112.77 125.52 C111.73 125.53 110.69 125.54 109.61 125.55 C108.48 125.54 107.34 125.53 106.18 125.53 C104.37 125.54 104.37 125.54 102.53 125.54 C99.24 125.56 95.96 125.55 92.67 125.54 C89.22 125.54 85.77 125.54 82.33 125.55 C76.54 125.55 70.75 125.55 64.97 125.53 C58.28 125.52 51.6 125.52 44.91 125.54 C39.17 125.55 33.42 125.55 27.68 125.54 C24.25 125.54 20.82 125.54 17.39 125.55 C13.56 125.56 9.74 125.55 5.92 125.53 C4.22 125.54 4.22 125.54 2.48 125.55 C1.44 125.54 0.4 125.53 -0.68 125.52 C-1.58 125.52 -2.48 125.52 -3.41 125.52 C-7.32 124.94 -9.98 123.11 -12.74 120.36 C-14.39 117.35 -14.35 115.05 -14.38 111.62 C-14.39 110.97 -14.4 110.32 -14.42 109.65 C-14.45 107.5 -14.45 105.35 -14.46 103.2 C-14.48 101.67 -14.5 100.14 -14.52 98.61 C-14.57 94.57 -14.6 90.52 -14.62 86.47 C-14.65 82.49 -14.7 78.51 -14.74 74.53 C-14.82 67.44 -14.87 60.34 -14.91 53.25 C-14.94 48.44 -14.97 43.63 -15.02 38.82 C-15.05 35.68 -15.07 32.53 -15.08 29.39 C-15.09 27.91 -15.1 26.43 -15.12 24.96 C-15.14 22.91 -15.15 20.87 -15.16 18.83 C-15.17 17.68 -15.18 16.53 -15.18 15.34 C-14.82 10.37 -13.79 7.1 -10.51 3.33 C-6.99 0.32 -4.48 0.01 0 0 Z " fill="#FAFAFA" transform="translate(194.9519805908203,59.85955810546875)"/>
<path d="M0 0 C0.76 -0 1.52 -0.01 2.3 -0.01 C3.9 -0.02 5.51 -0.02 7.11 -0.02 C9.55 -0.02 12 -0.04 14.44 -0.06 C16 -0.06 17.56 -0.06 19.12 -0.06 C19.85 -0.07 20.58 -0.08 21.33 -0.08 C26.78 -0.06 30.35 0.7 34.57 4.17 C45.22 16.64 51.9 33.55 59.15 48.18 C61.13 52.18 63.13 56.17 65.13 60.17 C66.8 63.51 68.47 66.85 70.13 70.2 C73.68 77.37 77.33 84.47 81.12 91.51 C84.3 97.44 87.31 103.45 90.29 109.48 C91.43 111.78 92.59 114.05 93.78 116.33 C94.48 117.67 94.48 117.67 95.19 119.04 C95.59 119.8 96 120.56 96.41 121.35 C96.77 122.25 96.77 122.25 97.13 123.17 C96.8 123.83 96.47 124.49 96.13 125.17 C91.43 125.29 86.74 125.38 82.04 125.44 C80.45 125.47 78.85 125.5 77.26 125.55 C60.91 125.98 60.91 125.98 55.58 121.75 C52.99 118.93 51.26 115.93 49.63 112.48 C49.28 111.8 48.94 111.13 48.58 110.43 C46.13 105.54 46.13 105.54 46.13 103.17 C22.04 103.5 -2.05 103.83 -26.87 104.17 C-29.51 109.12 -32.15 114.07 -34.87 119.17 C-41.15 124.19 -43.81 125.48 -51.7 125.36 C-52.82 125.36 -52.82 125.36 -53.97 125.35 C-56.35 125.34 -58.74 125.32 -61.12 125.29 C-62.74 125.28 -64.36 125.27 -65.98 125.27 C-69.94 125.24 -73.91 125.21 -77.87 125.17 C-77.31 121.79 -76.5 119.1 -74.87 116.09 C-74.46 115.33 -74.05 114.57 -73.63 113.79 C-72.98 112.58 -72.98 112.58 -72.31 111.36 C-71.39 109.64 -70.47 107.92 -69.55 106.21 C-69.1 105.35 -68.64 104.5 -68.17 103.62 C-66.35 100.18 -64.6 96.71 -62.87 93.23 C-62.55 92.59 -62.24 91.96 -61.91 91.3 C-61.25 89.97 -60.59 88.64 -59.93 87.31 C-57.92 83.26 -55.9 79.21 -53.87 75.17 C-50.36 68.16 -50.36 68.16 -46.88 61.15 C-42.02 51.35 -36.99 41.64 -31.9 31.96 C-29.93 28.22 -28.01 24.47 -26.12 20.68 C-25.47 19.4 -25.47 19.4 -24.81 18.08 C-24 16.49 -23.21 14.89 -22.43 13.28 C-19.68 7.88 -16.05 2.74 -10.15 0.52 C-6.77 -0 -3.41 0.01 0 0 Z M9.13 30.17 C6.57 34.1 4.51 38.28 2.44 42.48 C1.74 43.9 1.03 45.32 0.32 46.74 C-0.04 47.47 -0.4 48.2 -0.77 48.95 C-2.57 52.57 -4.37 56.18 -6.18 59.79 C-6.83 61.08 -7.47 62.36 -8.11 63.64 C-9.26 65.94 -10.42 68.23 -11.6 70.5 C-13.01 72.98 -13.01 72.98 -12.87 75.17 C1.65 75.17 16.17 75.17 31.13 75.17 C30.21 70.55 28.77 67.13 26.63 63.04 C22.99 55.95 19.55 48.78 16.19 41.55 C14.35 37.63 12.54 33.78 10.13 30.17 C9.8 30.17 9.47 30.17 9.13 30.17 Z " fill="#FAFAFA" transform="translate(865.87109375,59.83203125)"/>
<path d="M0 0 C0.85 -0.01 1.7 -0.01 2.58 -0.02 C5.36 -0.03 8.15 -0.03 10.93 -0.03 C12.88 -0.03 14.83 -0.03 16.78 -0.04 C20.85 -0.05 24.91 -0.05 28.98 -0.04 C34.19 -0.04 39.4 -0.05 44.61 -0.08 C48.63 -0.09 52.65 -0.09 56.66 -0.09 C58.59 -0.09 60.51 -0.09 62.43 -0.1 C65.11 -0.12 67.79 -0.11 70.48 -0.1 C71.27 -0.11 72.06 -0.11 72.87 -0.12 C78.45 -0.07 81.5 1.24 85.73 4.71 C88.3 7.92 88.11 11.69 88.11 15.66 C88.11 16.68 88.11 17.7 88.12 18.75 C88.11 19.81 88.11 20.87 88.1 21.96 C88.11 23.03 88.11 24.1 88.12 25.21 C88.11 26.73 88.11 26.73 88.11 28.29 C88.11 29.22 88.11 30.15 88.11 31.11 C87.98 33.27 87.98 33.27 86.98 34.27 C84.07 34.37 81.18 34.4 78.27 34.38 C76.38 34.39 74.48 34.39 72.59 34.39 C71.07 34.38 71.07 34.38 69.52 34.38 C64.19 34.38 58.85 34.4 53.51 34.43 C46.71 34.45 39.92 34.47 33.12 34.45 C27.63 34.44 22.14 34.46 16.66 34.49 C14.57 34.5 12.48 34.5 10.39 34.49 C7.46 34.47 4.53 34.49 1.59 34.52 C0.31 34.5 0.31 34.5 -1.01 34.48 C-7.49 34.6 -11.38 36.77 -16.02 41.27 C-17.96 43.86 -17.96 43.86 -19.02 46.27 C-19.52 47.26 -19.52 47.26 -20.02 48.27 C-20.26 52.34 -20.25 56.41 -20.26 60.49 C-20.27 62.5 -20.3 64.52 -20.33 66.54 C-20.34 67.82 -20.34 69.1 -20.35 70.42 C-20.36 71.59 -20.37 72.76 -20.38 73.96 C-19.98 77.67 -18.83 80.04 -17.02 83.27 C-16.69 84.26 -16.36 85.25 -16.02 86.27 C-13.81 87.36 -13.81 87.36 -11.02 88.27 C-10 88.78 -8.97 89.29 -7.92 89.81 C-3.55 91.68 0.52 91.72 5.22 91.71 C6.57 91.72 6.57 91.72 7.94 91.74 C10.89 91.77 13.84 91.78 16.79 91.79 C18.84 91.8 20.89 91.82 22.95 91.84 C28.33 91.89 33.72 91.92 39.11 91.94 C44.61 91.97 50.11 92.02 55.62 92.07 C66.41 92.15 77.19 92.22 87.98 92.27 C88.04 96 88.07 99.73 88.1 103.46 C88.12 104.52 88.14 105.57 88.16 106.66 C88.16 107.68 88.17 108.7 88.17 109.76 C88.19 110.69 88.2 111.63 88.21 112.6 C87.81 117.27 86.62 119.59 83.41 123.05 C79.53 126.03 75.88 125.97 71.14 125.91 C70.27 125.91 69.4 125.92 68.5 125.93 C65.64 125.94 62.77 125.92 59.91 125.9 C57.91 125.9 55.9 125.91 53.9 125.91 C49.7 125.91 45.5 125.9 41.31 125.87 C35.95 125.84 30.6 125.84 25.25 125.86 C21.11 125.87 16.97 125.86 12.83 125.85 C10.86 125.84 8.89 125.84 6.92 125.85 C-3.73 125.87 -13.12 125.7 -23.02 121.27 C-23.76 120.96 -24.51 120.65 -25.27 120.33 C-38.29 114.71 -47.72 103.48 -53.01 90.62 C-55.8 81.37 -56.34 72.4 -56.27 62.77 C-56.28 61.63 -56.29 60.48 -56.29 59.3 C-56.26 44.79 -53.79 29.01 -43.02 18.27 C-42.36 18.27 -41.7 18.27 -41.02 18.27 C-40.69 17.28 -40.36 16.29 -40.02 15.27 C-39.36 15.27 -38.7 15.27 -38.02 15.27 C-38.02 14.61 -38.02 13.95 -38.02 13.27 C-32.61 9.27 -32.61 9.27 -30.02 9.27 C-30.02 8.61 -30.02 7.95 -30.02 7.27 C-28.21 6.47 -26.4 5.68 -24.58 4.9 C-23.57 4.46 -22.56 4.02 -21.52 3.56 C-14.39 0.94 -7.58 -0.02 0 0 Z " fill="#FAFAFA" transform="translate(382.0205078125,59.725341796875)"/>
<path d="M0 0 C1.09 0 2.18 0 3.3 0.01 C4.68 0.02 6.06 0.03 7.49 0.04 C14.08 0.07 14.08 0.07 20.8 0.1 C21.13 16.6 21.46 33.1 21.8 50.1 C23.12 48.78 24.44 47.46 25.8 46.1 C26.46 46.1 27.12 46.1 27.8 46.1 C27.8 45.44 27.8 44.78 27.8 44.1 C31.26 41.1 31.26 41.1 33.8 41.1 C34.13 40.11 34.46 39.12 34.8 38.1 C36.26 36.62 36.26 36.62 38.18 35.04 C41.61 32.12 44.97 29.14 48.3 26.1 C52.08 22.65 55.9 19.24 59.76 15.89 C63.01 13.03 66.21 10.12 69.41 7.21 C74.68 2.56 77.9 -0.04 85.02 -0.02 C85.84 -0.02 86.66 -0.02 87.51 -0.02 C88.38 -0.01 89.26 -0.01 90.16 0 C91.06 0 91.97 0 92.9 0 C95.78 0.01 98.67 0.02 101.55 0.04 C103.51 0.04 105.46 0.04 107.42 0.05 C112.21 0.06 117.01 0.08 121.8 0.1 C120.99 4.13 119.49 5.64 116.36 8.35 C115.56 9.05 114.76 9.76 113.93 10.49 C111.8 12.1 111.8 12.1 109.8 12.1 C109.8 12.76 109.8 13.42 109.8 14.1 C108.34 15.61 108.34 15.61 106.43 17.22 C105.8 17.76 105.17 18.3 104.53 18.86 C102.8 20.1 102.8 20.1 100.8 20.1 C100.8 20.76 100.8 21.42 100.8 22.1 C99.14 23.57 97.42 24.98 95.68 26.35 C92.36 28.99 89.17 31.59 86.24 34.66 C85.43 35.46 84.63 36.27 83.8 37.1 C83.14 37.1 82.48 37.1 81.8 37.1 C81.8 37.76 81.8 38.42 81.8 39.1 C80.23 40.51 78.59 41.85 76.93 43.16 C72.02 47.07 67.38 51.16 62.8 55.45 C60.8 57.1 60.8 57.1 58.8 57.1 C58.47 58.09 58.14 59.08 57.8 60.1 C57.14 60.1 56.48 60.1 55.8 60.1 C55.47 61.42 55.14 62.74 54.8 64.1 C55.6 64.42 55.6 64.42 56.41 64.74 C59.72 66.62 62.31 69.18 65.05 71.79 C66.22 72.88 67.39 73.97 68.55 75.07 C69.12 75.59 69.68 76.12 70.25 76.66 C72.73 78.96 75.27 81.17 77.82 83.37 C81.13 86.26 84.36 89.22 87.6 92.18 C89.85 94.22 89.85 94.22 92.8 96.1 C92.8 96.76 92.8 97.42 92.8 98.1 C93.6 98.42 93.6 98.42 94.41 98.74 C97.71 100.62 100.27 103.18 102.99 105.79 C107.56 110.1 112.18 114.11 117.29 117.79 C117.79 118.22 118.29 118.65 118.8 119.1 C118.8 119.76 118.8 120.42 118.8 121.1 C119.79 121.43 120.78 121.76 121.8 122.1 C121.8 123.09 121.8 124.08 121.8 125.1 C115.93 125.17 110.06 125.23 104.19 125.26 C102.19 125.28 100.19 125.3 98.2 125.32 C95.32 125.36 92.45 125.38 89.57 125.39 C88.24 125.41 88.24 125.41 86.88 125.44 C81.74 125.44 78.3 124.89 73.8 122.1 C73.8 121.44 73.8 120.78 73.8 120.1 C73.26 119.88 72.73 119.66 72.18 119.44 C68.95 117.62 66.46 115.14 63.8 112.6 C58.38 107.48 52.79 102.71 46.97 98.06 C45.9 97.09 45.9 97.09 44.8 96.1 C44.8 95.44 44.8 94.78 44.8 94.1 C43.91 93.69 43.91 93.69 43 93.27 C40.86 92.13 39.38 90.97 37.64 89.31 C37.07 88.78 36.51 88.25 35.93 87.71 C35.06 86.88 35.06 86.88 34.18 86.04 C30.31 82.13 30.31 82.13 25.8 79.1 C25.8 78.44 25.8 77.78 25.8 77.1 C24.48 76.44 23.16 75.78 21.8 75.1 C21.47 91.6 21.14 108.1 20.8 125.1 C16.3 125.18 11.81 125.26 7.18 125.35 C5.77 125.38 4.36 125.42 2.91 125.46 C-2.13 125.5 -6.16 125.53 -10.85 123.58 C-16.64 117.47 -17.79 111.34 -17.7 103.14 C-17.71 102.17 -17.71 101.21 -17.72 100.22 C-17.73 97.05 -17.71 93.89 -17.7 90.72 C-17.7 88.51 -17.7 86.3 -17.7 84.09 C-17.7 79.46 -17.69 74.84 -17.67 70.21 C-17.64 64.29 -17.64 58.37 -17.65 52.46 C-17.66 47.89 -17.65 43.33 -17.64 38.76 C-17.64 36.58 -17.63 34.4 -17.64 32.22 C-17.64 29.16 -17.63 26.11 -17.6 23.06 C-17.61 22.16 -17.61 21.27 -17.62 20.35 C-17.55 14.61 -16.62 10.33 -14.2 5.1 C-9.67 0.68 -6.18 -0.03 0 0 Z " fill="#FAFAFA" transform="translate(1135.19921875,59.90234375)"/>
<path d="M0 0 C1.86 -0.01 1.86 -0.01 3.76 -0.02 C7.15 -0.03 10.54 -0.02 13.93 -0 C17.48 0.01 21.03 0 24.59 0 C30.55 -0 36.51 0.01 42.48 0.04 C49.36 0.06 56.25 0.06 63.14 0.05 C69.78 0.04 76.42 0.05 83.05 0.06 C85.87 0.07 88.69 0.07 91.51 0.06 C95.45 0.06 99.39 0.08 103.33 0.1 C104.5 0.09 105.66 0.09 106.87 0.08 C107.94 0.09 109.01 0.1 110.12 0.11 C111.05 0.12 111.98 0.12 112.94 0.12 C117.3 0.76 120.74 3.14 123.53 6.5 C126.49 15.36 124.53 25.16 124.53 34.5 C105.72 34.5 86.91 34.5 67.53 34.5 C67.53 64.53 67.53 94.56 67.53 125.5 C41.53 125.5 41.53 125.5 36.53 122.5 C32.02 117.66 32.39 111.99 32.42 105.68 C32.42 104.91 32.42 104.14 32.42 103.34 C32.42 100.81 32.43 98.27 32.44 95.73 C32.44 93.97 32.44 92.2 32.44 90.44 C32.45 85.81 32.45 81.17 32.47 76.54 C32.48 70.97 32.48 65.41 32.49 59.84 C32.5 51.4 32.52 42.95 32.53 34.5 C14.71 34.5 -3.11 34.5 -21.47 34.5 C-21.47 8.5 -21.47 8.5 -19.47 4.5 C-13.32 -0.29 -7.58 -0.06 0 0 Z " fill="#FAFAFA" transform="translate(44.46533203125,59.498291015625)"/>
<path d="M0 0 C26.35 0 26.35 0 31.75 4.44 C34.11 7.39 34.13 10.77 34.13 14.43 C34.14 15.32 34.14 16.2 34.15 17.11 C34.15 18.07 34.15 19.02 34.15 20.01 C34.15 21.03 34.15 22.05 34.16 23.09 C34.16 26.46 34.17 29.82 34.17 33.18 C34.17 35.52 34.17 37.86 34.18 40.19 C34.18 45.09 34.19 49.99 34.19 54.89 C34.19 61.17 34.2 67.45 34.22 73.73 C34.23 78.55 34.23 83.38 34.23 88.2 C34.23 90.52 34.23 92.83 34.24 95.15 C34.25 98.38 34.25 101.62 34.24 104.86 C34.25 105.81 34.25 106.77 34.26 107.76 C34.22 116.45 34.22 116.45 32 120 C26 125 26 125 0 125 C0 83.75 0 42.5 0 0 Z " fill="#FAFAFA" transform="translate(588,60)"/>
<path d="M0 0 C0 41.25 0 82.5 0 125 C-25 125 -25 125 -31 121 C-34.11 117.89 -34.12 114.81 -34.13 110.56 C-34.13 109.68 -34.13 108.79 -34.14 107.88 C-34.13 106.92 -34.13 105.96 -34.13 104.97 C-34.13 103.95 -34.13 102.93 -34.13 101.88 C-34.14 98.52 -34.14 95.15 -34.13 91.78 C-34.13 89.44 -34.13 87.1 -34.14 84.76 C-34.14 79.86 -34.14 74.96 -34.13 70.06 C-34.12 63.77 -34.13 57.48 -34.13 51.19 C-34.14 46.36 -34.14 41.53 -34.13 36.7 C-34.13 34.38 -34.13 32.07 -34.14 29.75 C-34.14 26.51 -34.13 23.27 -34.13 20.03 C-34.13 18.59 -34.13 18.59 -34.14 17.12 C-34.13 16.23 -34.13 15.35 -34.13 14.44 C-34.13 13.67 -34.13 12.91 -34.13 12.12 C-34 9.97 -33.59 8.07 -33 6 C-32.34 6 -31.68 6 -31 6 C-30.67 5.01 -30.34 4.02 -30 3 C-29.34 3 -28.68 3 -28 3 C-28 2.34 -28 1.68 -28 1 C-19.14 -1.95 -9.34 0 0 0 Z " fill="#FAFAFA" transform="translate(515,60)"/>
<path d="M0 0 C5.96 -0.02 11.93 -0.04 17.89 -0.05 C19.92 -0.06 21.95 -0.07 23.98 -0.08 C26.89 -0.09 29.8 -0.09 32.71 -0.1 C33.63 -0.1 34.54 -0.11 35.48 -0.11 C37.66 -0.11 39.83 -0.06 42 0 C43 1 43 1 43.12 4.44 C43 8 43 8 42 10 C32.76 10 23.52 10 14 10 C14 13.96 14 17.92 14 22 C22.58 22 31.16 22 40 22 C40 25.3 40 28.6 40 32 C39 33 39 33 36.59 33.11 C35.55 33.11 34.51 33.1 33.43 33.1 C32.31 33.09 31.18 33.09 30.03 33.09 C28.84 33.08 27.66 33.07 26.44 33.06 C25.25 33.06 24.06 33.05 22.84 33.05 C19.89 33.04 16.95 33.02 14 33 C14 36.96 14 40.92 14 45 C14.84 44.99 15.69 44.99 16.55 44.98 C19.67 44.97 22.79 44.95 25.91 44.95 C27.26 44.94 28.61 44.93 29.96 44.92 C31.9 44.91 33.84 44.91 35.78 44.9 C37.53 44.89 37.53 44.89 39.32 44.89 C42 45 42 45 43 46 C43.1 47.5 43.13 49 43.12 50.5 C43.13 51.72 43.13 51.72 43.13 52.97 C43 55 43 55 42 56 C38.98 56.1 35.99 56.14 32.97 56.13 C32.06 56.13 31.16 56.13 30.22 56.14 C28.3 56.14 26.38 56.13 24.46 56.13 C21.51 56.13 18.56 56.13 15.61 56.14 C13.75 56.14 11.89 56.13 10.03 56.13 C8.7 56.14 8.7 56.14 7.34 56.14 C1.11 56.11 1.11 56.11 0 55 C-0.09 53.28 -0.12 51.56 -0.11 49.84 C-0.11 48.74 -0.11 47.64 -0.11 46.5 C-0.11 45.3 -0.1 44.11 -0.1 42.87 C-0.1 41.65 -0.09 40.43 -0.09 39.18 C-0.09 35.26 -0.08 31.35 -0.06 27.44 C-0.06 24.79 -0.05 22.15 -0.05 19.5 C-0.04 13 -0.02 6.5 0 0 Z " fill="#FAFAFA" transform="translate(331,239)"/>
<path d="M0 0 C0.9 0.74 0.9 0.74 1.81 1.5 C2.47 0.84 3.13 0.18 3.81 -0.5 C7.77 -0.5 11.73 -0.5 15.81 -0.5 C15.81 17.65 15.81 35.8 15.81 54.5 C11.85 54.5 7.89 54.5 3.81 54.5 C1.87 52.56 2.41 49.03 2.25 46.44 C2.17 45.15 2.08 43.86 2 42.53 C1.94 41.53 1.87 40.53 1.81 39.5 C0.82 40.16 -0.17 40.82 -1.19 41.5 C-7.89 43.11 -14.08 42.8 -20.19 39.5 C-25.86 34.32 -28.22 27.63 -28.62 20.06 C-28.37 13.42 -25.91 7.62 -21.75 2.5 C-15.52 -2.36 -7.19 -3.38 0 0 Z M-13.19 11.5 C-15.49 15.44 -15.57 19.01 -15.19 23.5 C-13.65 28.57 -13.65 28.57 -9.88 32 C-6.57 32.61 -4.41 32.46 -1.19 31.5 C1.85 29.21 2.72 28.02 3.38 24.22 C3.51 16.8 3.51 16.8 0.69 10.12 C-4.54 7.17 -8.54 7.76 -13.19 11.5 Z " fill="#FAFAFA" transform="translate(410.1875,253.5)"/>
<path d="M0 0 C8.48 -0.09 8.48 -0.09 17.12 -0.19 C18.9 -0.21 20.67 -0.24 22.5 -0.27 C23.92 -0.28 25.34 -0.29 26.76 -0.29 C27.48 -0.31 28.21 -0.32 28.95 -0.34 C33.73 -0.34 36.94 0.48 41 3 C45.21 7.32 46.77 11.47 47.31 17.44 C46.83 22.91 45.16 26.62 41.62 30.81 C37.59 34.18 34.14 35.26 28.92 35.2 C27.66 35.19 27.66 35.19 26.37 35.18 C25.32 35.16 24.27 35.14 23.19 35.12 C19.83 35.08 16.46 35.04 13 35 C13 41.93 13 48.86 13 56 C8.71 56 4.42 56 0 56 C0 37.52 0 19.04 0 0 Z M13 10 C13 14.95 13 19.9 13 25 C15.39 25.06 17.78 25.12 20.25 25.19 C21.37 25.23 21.37 25.23 22.51 25.27 C25.54 25.31 27.73 25.13 30.46 23.77 C32.4 21.55 32.51 20.42 32.44 17.5 C32.44 16.34 32.44 16.34 32.43 15.16 C32.12 12.98 32.12 12.98 30.98 11.23 C27.8 9.26 24.43 9.69 20.81 9.81 C19.69 9.83 19.69 9.83 18.54 9.85 C16.69 9.89 14.85 9.94 13 10 Z " fill="#FAFAFA" transform="translate(596,239)"/>
<path d="M0 0 C1.22 -0 2.44 -0.01 3.69 -0.01 C5.03 -0.01 6.37 -0.01 7.71 -0 C9.07 -0 10.44 -0.01 11.8 -0.01 C14.66 -0.01 17.52 -0.01 20.39 -0 C24.06 0 27.74 0 31.41 -0 C34.23 -0.01 37.05 -0.01 39.86 -0 C41.22 -0 42.57 -0 43.93 -0.01 C45.82 -0.01 47.71 -0 49.61 0 C51.22 0 51.22 0 52.87 0 C55.3 0.13 55.3 0.13 56.3 1.13 C56.3 7.73 56.3 14.33 56.3 21.13 C35.51 21.13 14.72 21.13 -6.7 21.13 C-6.7 0 -6.7 0 0 0 Z " fill="#FAFAFA" transform="translate(526.697265625,129.87060546875)"/>
<path d="M0 0 C0.75 -0.01 1.5 -0.02 2.28 -0.04 C8.15 -0.05 11.63 0.67 16.36 4.38 C20.38 9.57 19.07 16.86 18.88 23.06 C18.85 24.43 18.83 25.8 18.81 27.17 C18.75 30.51 18.67 33.85 18.56 37.19 C19.55 37.52 20.54 37.85 21.56 38.19 C21.56 39.84 21.56 41.49 21.56 43.19 C19.48 43.24 17.4 43.28 15.31 43.31 C14.15 43.34 12.99 43.36 11.8 43.38 C8.73 43.2 7.12 42.8 4.56 41.19 C3.57 41.85 2.58 42.51 1.56 43.19 C-5.06 44.51 -11.12 44.63 -17.44 42.19 C-20.86 38.67 -22.34 36.33 -22.75 31.44 C-22.68 27.01 -21.41 24.55 -18.44 21.19 C-13.62 18.29 -9.02 17.35 -3.56 16.5 C-2.78 16.37 -2 16.24 -1.19 16.11 C0.73 15.79 2.64 15.49 4.56 15.19 C4.89 13.87 5.22 12.55 5.56 11.19 C2.36 9.58 -0.97 9.55 -4.44 10.19 C-5.22 11.01 -6 11.84 -6.81 12.69 C-9.89 15.62 -10.67 15.53 -14.75 15.5 C-16.31 15.42 -17.88 15.32 -19.44 15.19 C-20.64 11.66 -20.48 11.29 -18.75 7.62 C-16.61 4.19 -14.54 1.81 -10.56 0.63 C-7.07 -0.1 -3.55 0 0 0 Z M-8.5 26.44 C-9.66 28.23 -9.66 28.23 -9.31 30.75 C-8.59 33.51 -8.59 33.51 -5.44 35.19 C-1.95 35 0.78 34.56 3.94 33.06 C6.31 30.33 6.3 27.71 6.56 24.19 C-1.28 23.92 -1.28 23.92 -8.5 26.44 Z " fill="#FAFAFA" transform="translate(670.4375,251.8125)"/>
<path d="M0 0 C1.1 -0.03 1.1 -0.03 2.22 -0.06 C7.46 -0.1 11.11 0.64 15.69 3.25 C18.73 7.21 19.05 10.16 18.98 15.08 C18.97 17.02 18.97 17.02 18.95 19 C18.93 20.35 18.9 21.71 18.88 23.06 C18.86 24.44 18.85 25.81 18.83 27.19 C18.8 30.54 18.75 33.9 18.69 37.25 C19.68 37.58 20.67 37.91 21.69 38.25 C21.69 39.9 21.69 41.55 21.69 43.25 C17.4 43.25 13.11 43.25 8.69 43.25 C8.36 42.26 8.03 41.27 7.69 40.25 C6.92 40.72 6.16 41.2 5.38 41.69 C-0.46 44.58 -7.51 44.88 -13.81 43.5 C-17.91 42.03 -19.15 40.96 -21.5 37.5 C-23.08 33.14 -22.7 29.41 -21.25 25.06 C-18.44 20.98 -14.85 18.82 -10.05 17.74 C-7.66 17.42 -5.28 17.19 -2.88 17 C-2.05 16.92 -1.22 16.85 -0.37 16.77 C1.65 16.58 3.67 16.41 5.69 16.25 C5.36 14.27 5.03 12.29 4.69 10.25 C3.23 10.22 1.77 10.2 0.31 10.19 C-0.91 10.17 -0.91 10.17 -2.15 10.15 C-4.36 10.11 -4.36 10.11 -6.31 11.25 C-6.64 12.24 -6.97 13.23 -7.31 14.25 C-9.65 15.42 -11.21 15.45 -13.81 15.5 C-15 15.54 -15 15.54 -16.22 15.58 C-16.91 15.47 -17.6 15.36 -18.31 15.25 C-18.97 14.26 -19.63 13.27 -20.31 12.25 C-18.71 7.07 -17.01 4.23 -12.31 1.25 C-8.26 0.01 -4.21 0.03 0 0 Z M-1.31 24.5 C-2.92 24.88 -2.92 24.88 -4.56 25.27 C-7.61 26.05 -7.61 26.05 -9.31 29.25 C-9.23 31.34 -9.23 31.34 -8.31 33.25 C-5.43 35.61 -5.43 35.61 -1.88 35 C2.28 34.33 2.28 34.33 5.69 32.25 C6.34 29.55 6.51 27.05 6.69 24.25 C3.74 22.78 1.84 23.73 -1.31 24.5 Z " fill="#FAFAFA" transform="translate(510.3125,251.75)"/>
<path d="M0 0 C4.7 2.94 7.84 6.73 10 11.88 C10.45 14.64 10.45 14.64 10.69 17.56 C10.77 18.54 10.86 19.51 10.95 20.51 C10.97 21.29 10.98 22.07 11 22.88 C10 23.88 10 23.88 7.22 23.99 C6.01 23.98 4.8 23.98 3.56 23.97 C2.25 23.97 0.95 23.97 -0.4 23.96 C-1.79 23.95 -3.17 23.95 -4.56 23.94 C-5.96 23.93 -7.35 23.93 -8.74 23.92 C-12.16 23.91 -15.58 23.9 -19 23.88 C-18.79 28.6 -18.79 28.6 -16.38 32.31 C-13.02 33.11 -10.44 33.3 -7 32.88 C-4.1 30.56 -4.1 30.56 -2 27.88 C-1 26.88 -1 26.88 1.29 26.78 C2.2 26.79 3.12 26.8 4.06 26.81 C4.98 26.82 5.9 26.83 6.85 26.84 C7.56 26.85 8.27 26.86 9 26.88 C9.75 29 9.75 29 10 31.88 C7.55 36.88 4.27 40.05 -1 41.88 C-8.74 43.35 -17.07 43.9 -24 39.65 C-28.07 36.48 -31.03 33.03 -32 27.88 C-32.9 17.72 -32.57 11.55 -26.19 3.62 C-18.95 -2.16 -8.72 -3.21 0 0 Z M-18 9.88 C-18.33 11.86 -18.66 13.83 -19 15.88 C-13.39 15.88 -7.78 15.88 -2 15.88 C-3.31 9.89 -3.31 9.89 -7 7.88 C-12.91 7.37 -12.91 7.37 -18 9.88 Z " fill="#FAFAFA" transform="translate(854,253.125)"/>
<path d="M0 0 C20.79 0 41.58 0 63 0 C63 6.6 63 13.2 63 20 C42.21 20 21.42 20 0 20 C0 13.4 0 6.8 0 0 Z " fill="#FAFAFA" transform="translate(520,94)"/>
<path d="M0 0 C3.37 2.48 3.92 3.58 4.75 7.75 C4.83 8.82 4.91 9.89 5 11 C3.08 11.11 1.17 11.19 -0.75 11.25 C-2.35 11.32 -2.35 11.32 -3.98 11.39 C-7.69 10.91 -8.54 9.69 -11 7 C-14.58 6.5 -14.58 6.5 -18 7 C-18.66 7.66 -19.32 8.32 -20 9 C-16.07 11.69 -12.74 12.59 -8.06 13.38 C-1.22 14.74 2.29 16.18 6.38 21.94 C7.61 26.02 7.3 29.11 5.94 33.12 C3.46 36.79 1.16 38.66 -3 40 C-12.11 41.51 -21.92 42.18 -30 37.12 C-32.77 34.19 -33.9 32.36 -34.19 28.31 C-34 26 -34 26 -33 25 C-29.29 24.58 -25.7 24.48 -22 25 C-19.94 27.44 -19.94 27.44 -19 30 C-16.71 31.14 -15.41 31.1 -12.88 31.06 C-10.96 31.03 -10.96 31.03 -9 31 C-8.67 29.35 -8.34 27.7 -8 26 C-9.23 25.7 -10.46 25.39 -11.73 25.08 C-13.36 24.66 -14.99 24.24 -16.62 23.81 C-17.43 23.62 -18.24 23.42 -19.07 23.22 C-24.56 21.77 -27.95 20 -32 16 C-33.6 12.81 -33.37 9.47 -33 6 C-31.36 2.3 -29.46 0.1 -26 -2 C-18.21 -4.62 -7.02 -4.37 0 0 Z " fill="#FAFAFA" transform="translate(943,255)"/>
<path d="M0 0 C3 1.31 3 1.31 5 3 C5.56 3.41 6.11 3.82 6.69 4.25 C11.51 10.69 10.26 19.74 10.19 27.31 C10.19 28.6 10.19 29.89 10.19 31.21 C10.14 40.72 10.14 40.72 9 43 C5.04 43 1.08 43 -3 43 C-3.03 42.14 -3.05 41.27 -3.08 40.39 C-3.17 37.18 -3.27 33.98 -3.37 30.77 C-3.42 29.39 -3.46 28 -3.5 26.62 C-3.56 24.62 -3.62 22.63 -3.68 20.64 C-3.72 19.44 -3.76 18.24 -3.79 17 C-3.88 13.95 -3.88 13.95 -5 11 C-8.3 11 -11.6 11 -15 11 C-17.05 15.09 -17.29 17.05 -17.41 21.52 C-17.47 23.39 -17.47 23.39 -17.53 25.3 C-17.58 27.26 -17.58 27.26 -17.62 29.25 C-17.66 30.57 -17.7 31.88 -17.74 33.24 C-17.84 36.49 -17.92 39.75 -18 43 C-19.81 43.03 -21.62 43.05 -23.44 43.06 C-24.45 43.07 -25.46 43.09 -26.5 43.1 C-29 43 -29 43 -30 42 C-30.09 38.97 -30.12 35.96 -30.1 32.93 C-30.1 32.02 -30.09 31.12 -30.09 30.18 C-30.09 27.27 -30.08 24.35 -30.06 21.44 C-30.06 19.47 -30.05 17.5 -30.05 15.53 C-30.04 10.68 -30.02 5.84 -30 1 C-26.04 1 -22.08 1 -18 1 C-17.67 1.66 -17.34 2.32 -17 3 C-16.24 2.5 -15.47 2.01 -14.69 1.5 C-9.71 -0.52 -5.31 -0.61 0 0 Z " fill="#FAFAFA" transform="translate(802,252)"/>
<path d="M0 0 C3.96 0 7.92 0 12 0 C12.03 0.83 12.05 1.66 12.08 2.52 C12.17 5.61 12.27 8.71 12.37 11.8 C12.44 13.79 12.5 15.79 12.56 17.78 C12.62 19.66 12.62 19.66 12.68 21.58 C12.72 22.74 12.76 23.9 12.79 25.09 C12.88 28.06 12.88 28.06 14 31 C18.18 31.98 18.18 31.98 22.31 31.19 C24.15 30.09 24.15 30.09 25 28 C25.14 25.98 25.23 23.96 25.28 21.93 C25.32 20.73 25.36 19.52 25.39 18.28 C25.46 15.71 25.54 13.15 25.61 10.59 C25.64 9.38 25.68 8.18 25.72 6.93 C25.75 5.82 25.78 4.71 25.81 3.56 C26 1 26 1 27 0 C30.96 0 34.92 0 39 0 C39 13.86 39 27.72 39 42 C35.04 42 31.08 42 27 42 C26.34 41.34 25.68 40.68 25 40 C24.01 40.66 23.02 41.32 22 42 C16.11 43.28 10.58 43.51 5 41 C1.42 37.55 0.16 36.09 -0.57 31.11 C-0.57 29.66 -0.54 28.21 -0.49 26.76 C-0.48 25.99 -0.47 25.22 -0.47 24.43 C-0.44 21.99 -0.38 19.56 -0.31 17.12 C-0.29 15.47 -0.26 13.81 -0.24 12.15 C-0.19 8.1 -0.1 4.05 0 0 Z " fill="#FAFAFA" transform="translate(439,253)"/>
<path d="M0 0 C3.96 0 7.92 0 12 0 C12 3.96 12 7.92 12 12 C14.64 12 17.28 12 20 12 C20 14.97 20 17.94 20 21 C17.69 21.33 15.38 21.66 13 22 C13 29.26 13 36.52 13 44 C16.47 44.5 16.47 44.5 20 45 C20.1 51.15 20.1 51.15 20 53 C18.08 54.92 14.81 54.26 12.25 54.31 C10.4 54.37 10.4 54.37 8.52 54.43 C4.31 53.92 2.94 53.01 0 50 C-0.66 46.98 -0.66 46.98 -0.71 43.48 C-0.74 42.23 -0.77 40.98 -0.79 39.7 C-0.8 38.39 -0.81 37.09 -0.81 35.75 C-0.84 34.43 -0.86 33.12 -0.89 31.76 C-0.95 28.5 -0.98 25.25 -1 22 C-3.31 21.34 -5.62 20.68 -8 20 C-8.04 17.67 -8.04 15.33 -8 13 C-7 12 -7 12 -3.44 11.94 C-2.3 11.96 -1.17 11.98 0 12 C0 8.04 0 4.08 0 0 Z " fill="#FAFAFA" transform="translate(742,241)"/>
<path d="M0 0 C3.96 0 7.92 0 12 0 C12 18.48 12 36.96 12 56 C8.04 56 4.08 56 0 56 C-1.68 54.32 -1.13 52.25 -1.13 49.95 C-1.13 48.87 -1.14 47.79 -1.14 46.68 C-1.14 45.51 -1.13 44.33 -1.13 43.12 C-1.13 41.93 -1.13 40.74 -1.14 39.5 C-1.14 36.97 -1.13 34.44 -1.13 31.91 C-1.13 28.02 -1.13 24.13 -1.14 20.23 C-1.14 17.78 -1.13 15.33 -1.13 12.88 C-1.13 11.7 -1.14 10.53 -1.14 9.32 C-1.14 8.24 -1.13 7.17 -1.13 6.05 C-1.13 5.1 -1.13 4.15 -1.13 3.16 C-1 1 -1 1 0 0 Z " fill="#FAFAFA" transform="translate(543,239)"/>
<path d="M0 0 C1 1 1 1 1.13 3.25 C1.13 4.16 1.13 5.06 1.12 6 C1.13 7.36 1.13 7.36 1.13 8.75 C1 11 1 11 0 12 C-2.51 12.49 -5.03 12.9 -7.55 13.3 C-10.36 14.1 -11.24 14.7 -13 17 C-13.49 19.57 -13.49 19.57 -13.48 22.47 C-13.52 24.07 -13.52 24.07 -13.57 25.7 C-13.59 26.81 -13.61 27.92 -13.62 29.06 C-13.68 31.26 -13.73 33.46 -13.79 35.66 C-13.81 36.64 -13.82 37.61 -13.84 38.62 C-14 41 -14 41 -15 43 C-18.96 43 -22.92 43 -27 43 C-27 29.14 -27 15.28 -27 1 C-23.04 1 -19.08 1 -15 1 C-14.34 1.66 -13.68 2.32 -13 3 C-11.73 2.26 -11.73 2.26 -10.44 1.5 C-6.64 -0.16 -4.09 -0.32 0 0 Z " fill="#FAFAFA" transform="translate(729,252)"/>
<path d="M0 0 C0 3.96 0 7.92 0 12 C-4.59 12.54 -4.59 12.54 -9.18 13.07 C-12.16 13.69 -12.16 13.69 -13.15 16.2 C-14.05 19.16 -14.32 21.66 -14.41 24.74 C-14.47 26.34 -14.47 26.34 -14.53 27.97 C-14.58 29.62 -14.58 29.62 -14.62 31.31 C-14.66 32.43 -14.7 33.56 -14.74 34.71 C-14.84 37.48 -14.92 40.24 -15 43 C-16.81 43.03 -18.62 43.05 -20.44 43.06 C-21.45 43.07 -22.46 43.09 -23.5 43.1 C-26 43 -26 43 -27 42 C-27.09 38.97 -27.12 35.96 -27.1 32.93 C-27.1 32.02 -27.09 31.12 -27.09 30.18 C-27.09 27.27 -27.08 24.35 -27.06 21.44 C-27.06 19.47 -27.05 17.5 -27.05 15.53 C-27.04 10.68 -27.02 5.84 -27 1 C-23.04 1 -19.08 1 -15 1 C-14.67 1.99 -14.34 2.98 -14 4 C-12.48 3.01 -12.48 3.01 -10.94 2 C-7.22 -0.15 -4.31 -0.35 0 0 Z " fill="#FAFAFA" transform="translate(902,252)"/>
</svg>
